<svg xmlns="http://www.w3.org/2000/svg" viewBox="0 0 200 200" width="200" height="200">
  <rect width="200" height="200" fill="#12243A"/>
  <g opacity="0.28" fill="none" stroke="#B08A3E" stroke-width="0.7">
    <circle cx="100" cy="100" r="76"/><circle cx="100" cy="100" r="58"/>
    <path d="M24 100h152M100 24v152M46 46l108 108M154 46L46 154"/>
  </g>
  <circle cx="100" cy="100" r="44" fill="#1B3556" stroke="#B08A3E" stroke-width="1.4"/>
  <path d="M100 66c-16 0-27 12-27 28 0 15 11 30 27 40 16-10 27-25 27-40 0-16-11-28-27-28z"
        fill="#0E1C2E" stroke="#D4AC63" stroke-width="1.2"/>
  <ellipse cx="100" cy="98" rx="16" ry="19" fill="#C89A6B"/>
  <circle cx="94" cy="95" r="2.1" fill="#12243A"/><circle cx="106" cy="95" r="2.1" fill="#12243A"/>
  <path d="M95 106q5 3.5 10 0" stroke="#8A6440" stroke-width="1.3" fill="none" stroke-linecap="round"/>
  <text x="100" y="176" text-anchor="middle" fill="#D4AC63"
        font-family="Segoe UI,sans-serif" font-size="15" letter-spacing="4">ZAI</text>
</svg>
